<svg version="1.1" id="Layer_1" xmlns="http://www.w3.org/2000/svg" xmlns:xlink="http://www.w3.org/1999/xlink" x="0px" y="0px"
	 width="100%" viewBox="0 0 471 239" enable-background="new 0 0 471 239" xml:space="preserve">
<path fill="#FFFFFF" opacity="1.000000" stroke="none" 
	d="
M363.000000,240.000000 
	C285.979095,240.000000 208.958206,240.000000 131.510559,239.627594 
	C130.723557,236.505905 130.363297,233.756622 130.386047,231.010025 
	C132.047562,231.686234 133.305466,232.880615 134.608566,232.932159 
	C138.027863,233.067368 141.759338,233.468323 144.806717,232.301559 
	C147.305679,231.344772 149.000061,228.286499 151.730103,225.455719 
	C149.996979,222.784515 147.805084,219.377457 145.583313,215.989990 
	C143.375946,212.624527 142.234192,209.609116 136.715317,213.499847 
	C128.587845,219.229568 127.487129,219.519104 129.632599,228.960541 
	C128.445572,228.387009 127.663933,227.476273 126.802307,227.392990 
	C123.354889,227.059677 119.362465,225.856796 116.573265,227.144730 
	C114.040245,228.314362 112.558418,232.174881 111.111565,235.095963 
	C110.454079,236.423386 110.999977,238.346893 111.000000,240.000000 
	C110.250000,240.000000 109.500000,240.000000 108.374115,239.629242 
	C106.872055,237.962555 105.745880,236.666611 104.619705,235.370651 
	C104.079803,236.913773 103.539902,238.456879 103.000000,240.000000 
	C69.029884,240.000000 35.059769,240.000000 1.044825,240.000000 
	C1.044825,160.433258 1.044825,80.866486 1.044825,1.000000 
	C53.020512,1.000000 105.041595,1.000000 157.527603,1.391512 
	C157.292709,5.845748 156.592896,9.908471 155.887238,14.005135 
	C155.818100,13.957151 155.154327,13.556606 154.558197,13.072693 
	C151.144150,10.301295 147.683990,10.543211 143.915054,12.483276 
	C140.152557,14.420023 138.544373,17.402945 139.054398,21.405083 
	C139.424255,24.307411 140.334488,27.140881 140.701843,29.851171 
	C138.737930,27.437187 137.307571,24.936125 135.314651,23.020267 
	C134.341614,22.084864 131.798096,21.429157 130.859253,22.034075 
	C125.193832,25.684460 118.436562,28.817745 120.833069,37.852039 
	C112.106720,34.871765 107.980980,35.347027 104.564995,41.383698 
	C103.054741,44.052593 103.440048,48.899067 104.846184,51.865082 
	C107.198982,56.827938 111.857262,58.190418 116.611252,56.108192 
	C119.025887,55.050602 121.619438,53.116360 122.798889,50.876408 
	C124.039047,48.521183 123.686867,45.327503 124.061737,42.243065 
	C130.178833,46.610600 135.596985,45.393883 140.079361,39.058693 
	C141.269424,43.946003 141.221237,43.853188 135.977325,46.575264 
	C134.818268,47.176918 134.132614,48.690514 133.228989,49.784187 
	C134.680161,49.938515 136.271057,50.557976 137.559570,50.170879 
	C145.306641,47.843506 147.790497,41.059956 143.572128,34.239594 
	C142.701675,32.832230 141.853561,31.411043 141.390503,30.002430 
	C142.424774,30.158661 143.060043,30.418877 143.703293,30.440449 
	C147.301529,30.561127 151.250793,31.598267 154.414337,30.464502 
	C158.526886,28.990620 159.493317,24.672363 158.986282,20.366114 
	C158.837509,19.102661 158.588135,17.851057 158.245895,15.734519 
	C165.378387,21.409105 171.316483,21.965343 175.690475,13.521315 
	C175.856750,13.200334 176.865753,13.273188 176.977539,12.974012 
	C177.485031,11.615722 178.476761,9.947183 178.071594,8.836133 
	C177.071594,6.093838 175.401016,3.596067 174.000000,1.000003 
	C175.066666,1.000000 176.133347,1.000000 177.631805,1.357439 
	C179.169754,3.686522 180.085876,5.808990 181.473373,7.557379 
	C182.047806,8.281217 183.631592,8.204034 184.756332,8.491146 
	C184.878632,7.225699 185.329056,5.877624 185.036682,4.716599 
	C184.702835,3.390843 183.707748,2.231601 183.000000,1.000000 
	C279.264648,1.000000 375.529266,1.000000 471.896973,1.000000 
	C471.896973,80.666603 471.896973,160.333282 471.896973,240.000000 
	C443.563690,240.000000 415.250519,240.000000 386.467957,239.634918 
	C384.997803,237.178680 383.997070,235.087509 383.364502,233.037842 
	C387.909912,235.906357 392.419861,237.441162 397.220795,235.099167 
	C402.428680,232.558640 402.137634,227.178711 402.283691,222.553574 
	C403.162292,222.455795 403.343567,222.379074 403.478210,222.428741 
	C411.271210,225.303497 416.708801,223.656189 421.347565,216.895065 
	C421.749298,216.309509 421.984528,215.109909 421.660156,214.603333 
	C418.437286,209.569565 415.080200,204.621704 411.411713,199.126297 
	C409.592407,201.417572 408.818207,203.436829 407.620270,203.731064 
	C400.103912,205.577286 397.885712,210.352631 399.628448,217.647247 
	C398.816498,217.482788 398.273285,217.520004 397.920410,217.278748 
	C393.914490,214.539963 389.949249,214.321793 386.064789,217.454132 
	C381.905853,220.807770 380.198822,224.865799 382.498199,230.094162 
	C382.882874,230.968796 382.845856,232.028946 382.702087,232.850128 
	C380.389435,230.065430 378.378357,227.433945 376.209900,224.596497 
	C374.293060,226.418549 373.164124,228.442902 371.717957,228.702957 
	C365.201874,229.874588 363.445953,234.346603 363.000000,240.000000 
M72.219452,82.833794 
	C71.812721,81.173996 71.234680,79.535202 71.028229,77.850861 
	C70.006470,69.515030 69.277336,61.136398 67.965607,52.848740 
	C67.693459,51.129284 65.433006,48.492558 64.010208,48.440777 
	C60.942158,48.329117 59.646549,50.826195 59.978226,53.994160 
	C60.390335,57.930340 60.518227,61.899979 61.027740,65.821533 
	C62.299995,75.613724 63.718609,85.386909 64.813705,95.777016 
	C57.686520,104.472649 53.273258,114.337540 51.263260,126.185150 
	C58.564838,121.733574 64.691177,123.487373 70.663208,127.409439 
	C71.164993,124.972290 71.224632,122.691902 72.101685,120.788094 
	C74.979813,114.540520 77.304329,107.768120 81.445251,102.444893 
	C85.951134,96.652496 93.415718,98.850929 95.799660,105.857765 
	C96.649956,108.356918 96.623810,111.219528 97.776428,113.527298 
	C98.527245,115.030571 100.687004,116.791451 102.207863,116.784340 
	C109.227379,116.751564 113.933769,110.498817 112.668297,103.516640 
	C110.285149,90.367737 102.166267,83.579758 88.080566,82.210129 
	C89.117203,81.209846 90.448746,80.372337 91.113998,79.167068 
	C91.902168,77.739082 92.992493,75.345566 92.387566,74.528061 
	C91.291336,73.046600 88.151695,71.136444 87.408241,71.647987 
	C82.380684,75.107300 77.757652,79.154533 72.219452,82.833794 
M346.676605,81.990646 
	C346.676605,109.744568 346.676605,137.498489 346.676605,165.517731 
	C351.526581,165.517731 355.904541,165.517731 360.094513,165.517731 
	C360.367004,165.083344 360.527374,164.947052 360.527618,164.810486 
	C360.577240,136.859787 360.567322,108.908813 360.723694,80.958755 
	C360.740601,77.937782 359.136047,77.819954 357.014557,77.041298 
	C353.675262,71.239182 350.274384,65.487091 345.140381,61.143280 
	C344.746643,61.411762 344.352936,61.680241 343.959198,61.948723 
	C346.959869,67.230087 349.960541,72.511452 352.114197,77.907295 
	C350.403473,77.905617 348.692719,77.903938 346.893585,77.235229 
	C343.045532,74.462891 339.261017,71.593704 335.298523,68.995918 
	C334.456329,68.443787 332.460175,68.393379 331.895264,68.979233 
	C331.098511,69.805565 330.656647,71.544144 330.907593,72.711067 
	C331.943878,77.529564 333.178711,82.315529 334.594208,87.037415 
	C335.179565,88.990021 336.403107,90.751305 337.336395,92.599594 
	C337.860443,90.438583 338.384491,88.277573 339.260284,84.666153 
	C340.771973,83.917648 343.636658,82.499214 346.676605,81.990646 
M287.194092,110.929565 
	C282.764038,107.502831 277.926208,107.267052 272.227966,108.787788 
	C263.286346,101.824776 249.352783,100.760551 239.377045,106.451942 
	C233.570084,109.764961 229.297913,114.224701 229.086899,121.852577 
	C231.768494,121.852577 233.918350,121.852577 236.068192,121.852577 
	C238.220871,121.852577 240.373535,121.852577 242.397858,121.852577 
	C245.695969,114.273521 250.161530,111.987541 257.503418,113.893158 
	C262.898529,115.293480 264.961273,119.681763 263.937286,127.517128 
	C257.658447,128.014252 251.307678,128.034775 245.139999,129.107681 
	C233.010101,131.217758 226.633530,139.537735 227.853699,150.740036 
	C228.922104,160.548874 238.001022,167.644684 249.659058,166.601273 
	C254.861389,166.135651 259.868164,163.485077 265.039764,161.801376 
	C266.892365,166.436813 269.990356,167.299805 279.130249,165.489151 
	C278.907898,154.203262 278.689941,143.139053 279.175690,132.021729 
	C282.090851,131.019531 285.006012,130.017334 288.041016,129.943863 
	C288.041016,141.845200 288.041016,153.746536 288.041016,165.548920 
	C293.149078,165.548920 297.406860,165.548920 302.011261,165.548920 
	C302.011261,152.287582 302.008881,139.325378 302.012238,126.363182 
	C302.014130,118.963493 306.931671,114.116264 314.517426,114.025299 
	C321.817871,113.937759 325.149139,117.453125 325.244354,125.844398 
	C325.374725,137.333725 325.283875,148.825577 325.287659,160.316345 
	C325.288239,162.074417 325.287750,163.832489 325.287750,165.533081 
	C330.327972,165.533081 334.585602,165.533081 339.074860,165.533081 
	C339.074860,150.918640 339.282257,136.616257 338.999420,122.323578 
	C338.821289,113.323395 335.114716,106.272293 325.992798,102.528908 
	C326.382538,101.809364 326.662231,100.996979 327.178925,100.384575 
	C332.665039,93.882095 332.501587,88.835701 326.567047,83.069557 
	C322.004547,78.636536 315.997284,78.631729 311.437744,83.057457 
	C307.064392,87.302460 306.814087,93.649437 310.717865,98.259193 
	C311.962433,99.728828 312.918518,101.442749 313.489227,103.435791 
	C312.659088,103.622139 311.828949,103.808479 310.679626,103.394844 
	C307.128418,97.670959 304.098480,101.242981 300.121521,103.835686 
	C297.424927,103.763474 294.728333,103.691254 292.045319,102.925880 
	C293.738159,96.648132 298.469513,96.523033 303.910950,97.798706 
	C303.205750,92.458778 299.482513,94.000244 297.028198,94.122589 
	C292.472961,94.349663 289.189178,98.534340 288.336853,104.178337 
	C288.198639,106.447258 288.060425,108.716171 287.194092,110.929565 
M125.174522,140.679245 
	C123.274673,149.130219 119.882729,156.803497 113.249390,162.651459 
	C105.623398,169.374527 96.623222,171.003357 87.136681,168.242157 
	C77.740349,165.507233 72.969696,158.190628 71.064796,148.978302 
	C70.329910,145.424362 70.286560,141.721252 70.010849,138.079865 
	C69.526184,131.678482 65.305832,127.158287 59.837872,127.269096 
	C54.286751,127.381592 50.242737,131.921753 50.000652,138.380798 
	C48.973015,165.799072 68.545090,186.748535 95.375244,185.487701 
	C122.705460,184.203369 138.372543,161.832306 140.183258,142.652206 
	C140.761307,136.529251 138.477814,133.213257 133.392365,132.336472 
	C129.355453,131.640488 127.037567,133.831650 125.174522,140.679245 
M192.133682,166.373947 
	C203.434097,167.669327 213.044815,164.783356 220.390167,155.138885 
	C217.800034,152.665588 215.453690,150.425095 213.054794,148.134430 
	C206.634827,154.633423 199.667557,157.753006 191.107025,154.336365 
	C184.502594,151.700439 181.815414,146.311432 181.135468,138.990387 
	C194.682632,138.990387 207.898224,138.990387 221.371292,138.990387 
	C221.491104,128.403488 221.368759,118.299171 213.969437,110.376030 
	C201.422623,96.940956 177.938782,101.562538 170.206314,118.857552 
	C166.557632,127.018471 166.094543,135.609604 167.912277,144.279617 
	C170.485397,156.552628 178.824203,164.292999 192.133682,166.373947 
M413.230377,129.887497 
	C416.178589,121.362587 419.126801,112.837685 422.163483,104.056946 
	C416.819794,104.056946 412.200256,104.056946 407.427704,104.056946 
	C403.375061,117.472664 399.371948,130.724289 395.362091,143.998383 
	C394.623779,143.730896 394.414642,143.713821 394.390686,143.638092 
	C391.432617,134.294418 388.486389,124.946976 385.543488,115.598495 
	C381.592712,103.048241 381.593933,103.046028 368.357605,103.897934 
	C368.038544,103.918480 367.729706,104.097763 367.129608,104.299133 
	C367.655762,105.843468 368.170746,107.390190 368.708801,108.928856 
	C374.905640,126.650833 381.172302,144.349030 387.212585,162.124191 
	C387.887909,164.111572 387.693665,166.629990 387.199371,168.737167 
	C385.370300,176.534760 380.334930,180.188095 372.130768,178.925507 
	C372.130768,182.901093 372.130768,186.325867 372.130768,190.448257 
	C375.502716,190.448257 378.682617,190.855972 381.720520,190.372192 
	C391.020111,188.891220 395.220734,182.016815 398.031769,173.986465 
	C403.082123,159.558945 408.029877,145.095520 413.230377,129.887497 
M160.837494,84.605972 
	C160.837494,82.497635 160.837494,80.389297 160.837494,78.304604 
	C155.831299,78.304604 151.443909,78.304604 147.211914,78.304604 
	C147.211914,107.591904 147.211914,136.508682 147.211914,165.431549 
	C151.925034,165.431549 156.303345,165.431549 160.837433,165.431549 
	C160.837433,138.565918 160.837433,112.075142 160.837494,84.605972 
M399.465179,28.964972 
	C402.910034,33.311043 404.873169,38.915371 409.673035,42.110783 
	C410.237823,41.771221 410.802612,41.431660 411.367401,41.092102 
	C409.585022,37.652439 407.802612,34.212772 406.020233,30.773109 
	C406.338196,30.481327 406.656158,30.189543 406.974121,29.897760 
	C409.559326,31.551325 412.062103,33.361553 414.768280,34.785065 
	C415.928680,35.395451 417.949249,35.803871 418.778503,35.201679 
	C419.584503,34.616386 419.687683,32.582661 419.531525,31.251602 
	C419.190247,28.342356 418.488647,25.475374 417.934265,22.591127 
	C418.469391,22.405798 419.004547,22.220469 419.539673,22.035139 
	C420.986359,23.943655 422.325623,25.949564 423.928162,27.716734 
	C424.653381,28.516441 425.901855,28.841669 426.912903,29.382149 
	C426.911316,28.197437 427.370331,26.715260 426.829956,25.878527 
	C424.222473,21.841017 421.462189,17.886059 418.497375,14.104725 
	C417.544769,12.889779 415.800476,12.295596 414.418396,11.417403 
	C413.956238,13.250877 412.917450,15.159343 413.144257,16.903217 
	C413.732971,21.430040 414.878296,25.884474 416.048950,31.569540 
	C411.313385,28.600201 407.673431,26.081461 403.799103,23.998718 
	C402.124878,23.098680 399.966492,23.099279 398.028015,22.690756 
	C398.339722,24.601522 398.651428,26.512289 399.465179,28.964972 
M401.077057,37.798679 
	C399.672913,35.992947 398.481232,33.956741 396.822296,32.427345 
	C392.825104,28.742271 386.890961,28.965883 382.818726,32.688950 
	C377.993286,37.100651 377.501556,42.421764 381.426636,47.754559 
	C385.982330,53.944206 390.760590,55.511856 395.826050,52.478657 
	C401.454773,49.108177 402.902252,45.426918 401.077057,37.798679 
M100.413803,65.236916 
	C95.787613,63.068230 91.263618,60.618465 86.481148,58.879608 
	C84.750603,58.250404 82.401108,59.323536 80.334038,59.619881 
	C81.225647,61.877079 81.481316,65.035545 83.139862,66.205811 
	C86.707214,68.722931 90.898956,70.484215 95.038849,71.997643 
	C96.707275,72.607559 99.636566,72.449951 100.662254,71.374001 
	C101.665596,70.321510 100.975922,67.655090 100.413803,65.236916 
M372.389740,63.946388 
	C369.981842,62.397835 366.843079,61.341728 365.373596,59.160873 
	C363.931915,57.021297 363.085052,53.308792 363.960815,51.058693 
	C365.227295,47.804737 368.391144,45.776409 372.566772,47.627747 
	C373.363861,47.981144 374.684875,47.152771 376.106720,46.779755 
	C372.255280,42.187138 365.815430,43.846790 362.438324,47.111763 
	C358.781097,50.647587 359.046631,57.679199 363.018280,62.482464 
	C366.951447,67.239212 372.247498,68.470764 376.624603,65.646530 
	C382.027283,62.160568 383.269318,58.529221 381.131348,54.158997 
	C378.584808,57.238480 375.860107,60.533390 372.389740,63.946388 
M92.964119,47.492813 
	C96.446289,52.334091 99.847496,57.237755 103.485229,61.959175 
	C104.140434,62.809563 105.769287,62.909771 106.948624,63.356327 
	C106.941864,62.043076 107.446678,60.397034 106.844398,59.471180 
	C103.236649,53.925232 99.503281,48.446865 95.501808,43.181599 
	C94.559181,41.941254 92.424980,41.606476 90.838943,40.855106 
	C91.158661,42.642292 91.455994,44.434071 91.821098,46.211933 
	C91.878883,46.493351 92.242393,46.711987 92.964119,47.492813 
M147.117523,213.243454 
	C149.362289,216.276932 151.523361,219.378983 153.912781,222.293884 
	C154.484100,222.990845 155.816345,223.064087 156.798615,223.424210 
	C157.014847,222.259888 157.813248,220.733337 157.351334,219.990921 
	C154.667450,215.677094 151.740372,211.508911 148.746719,207.399902 
	C148.324570,206.820480 146.841171,206.386337 146.292114,206.688965 
	C145.631302,207.053192 145.016647,208.352341 145.150024,209.111862 
	C145.363708,210.328461 146.209167,211.434082 147.117523,213.243454 
M420.456390,206.088196 
	C421.994690,208.200943 423.428375,210.405792 425.148041,212.358810 
	C425.556030,212.822144 427.144775,212.769989 427.777771,212.343109 
	C428.273682,212.008682 428.559845,210.445679 428.207245,209.914108 
	C425.071472,205.187210 421.772644,200.568451 418.417969,195.769104 
	C415.137695,199.608383 415.359436,200.586212 420.456390,206.088196 
M78.984650,57.404911 
	C77.531769,56.271111 76.211212,54.634556 74.573380,54.203499 
	C73.677849,53.967800 71.333748,55.705826 71.264771,56.669842 
	C71.155563,58.196110 71.974159,60.549614 73.168671,61.258991 
	C76.187538,63.051769 78.112968,61.317772 78.984650,57.404911 
z"/>
<path fill="#F1F1F1" opacity="1.000000" stroke="none" 
	d="
M173.533142,1.000003 
	C175.401016,3.596067 177.071594,6.093838 178.071594,8.836133 
	C178.476761,9.947183 177.485031,11.615722 176.977539,12.974012 
	C176.865753,13.273188 175.856750,13.200334 175.690475,13.521315 
	C171.316483,21.965343 165.378387,21.409105 158.245895,15.734519 
	C158.588135,17.851057 158.837509,19.102661 158.986282,20.366114 
	C159.493317,24.672363 158.526886,28.990620 154.414337,30.464502 
	C151.250793,31.598267 147.301529,30.561127 143.703293,30.440449 
	C143.060043,30.418877 142.424774,30.158661 141.392914,30.004326 
	C141.000000,30.000015 141.003754,30.005054 141.003754,30.005054 
	C140.334488,27.140881 139.424255,24.307411 139.054398,21.405083 
	C138.544373,17.402945 140.152557,14.420023 143.915054,12.483276 
	C147.683990,10.543211 151.144150,10.301295 154.558197,13.072693 
	C155.154327,13.556606 155.818100,13.957151 155.887238,14.005135 
	C156.592896,9.908471 157.292709,5.845748 157.996262,1.391512 
	C163.022095,1.000000 168.044189,1.000000 173.533142,1.000003 
M151.589691,27.177263 
	C155.384781,25.386442 155.948486,22.340855 154.227432,18.985195 
	C152.519058,15.654295 149.022110,15.106933 146.107224,16.390324 
	C144.595795,17.055790 142.980606,20.282833 143.365616,21.882524 
	C144.195786,25.331818 145.975662,28.911694 151.589691,27.177263 
M160.998917,8.484792 
	C160.980820,12.737748 163.132599,15.386745 167.318741,14.780893 
	C169.055847,14.529482 171.287262,12.142565 171.823990,10.298865 
	C172.955292,6.412870 170.514877,3.811464 166.792328,3.230005 
	C163.802032,2.762926 161.159103,3.881428 160.998917,8.484792 
z"/>
<path fill="#F1F1F1" opacity="1.000000" stroke="none" 
	d="
M130.003052,231.007324 
	C130.363297,233.756622 130.723557,236.505905 131.041901,239.627594 
	C129.933334,240.000000 128.866653,240.000000 127.398262,239.580078 
	C126.792786,237.386261 126.859444,235.526382 126.328545,233.856476 
	C125.250298,230.464905 122.519569,229.186539 119.318726,230.203476 
	C116.217514,231.188751 114.666862,233.621918 115.530968,237.109512 
	C115.764923,238.053787 115.847786,239.035477 116.000000,240.000000 
	C114.611107,240.000000 113.222221,240.000000 111.416664,240.000000 
	C110.999977,238.346893 110.454079,236.423386 111.111565,235.095963 
	C112.558418,232.174881 114.040245,228.314362 116.573265,227.144730 
	C119.362465,225.856796 123.354889,227.059677 126.802307,227.392990 
	C127.663933,227.476273 128.445572,228.387009 129.632172,229.294388 
	C130.001266,230.116669 130.002151,230.561996 130.003052,231.007324 
z"/>
<path fill="#F2F2F2" opacity="1.000000" stroke="none" 
	d="
M363.416656,240.000000 
	C363.445953,234.346603 365.201874,229.874588 371.717957,228.702957 
	C373.164124,228.442902 374.293060,226.418549 376.209900,224.596497 
	C378.378357,227.433945 380.389435,230.065430 382.700256,232.848450 
	C383.000000,233.000000 382.996338,232.996338 382.996338,232.996338 
	C383.997070,235.087509 384.997803,237.178680 385.999268,239.634918 
	C384.285645,240.000000 382.571289,240.000000 380.426819,239.614929 
	C379.943024,234.726288 377.005554,232.230209 373.174652,232.354935 
	C369.014618,232.490372 367.805695,236.121628 368.000000,240.000000 
	C366.611115,240.000000 365.222198,240.000000 363.416656,240.000000 
z"/>
<path fill="#FEFEFE" opacity="1.000000" stroke="none" 
	d="
M116.458069,240.000000 
	C115.847786,239.035477 115.764923,238.053787 115.530968,237.109512 
	C114.666862,233.621918 116.217514,231.188751 119.318726,230.203476 
	C122.519569,229.186539 125.250298,230.464905 126.328545,233.856476 
	C126.859444,235.526382 126.792786,237.386261 126.998268,239.580078 
	C123.638710,240.000000 120.277428,240.000000 116.458069,240.000000 
z"/>
<path fill="#FEFEFE" opacity="1.000000" stroke="none" 
	d="
M368.460632,240.000000 
	C367.805695,236.121628 369.014618,232.490372 373.174652,232.354935 
	C377.005554,232.230209 379.943024,234.726288 379.998352,239.614929 
	C376.307098,240.000000 372.614166,240.000000 368.460632,240.000000 
z"/>
<path fill="#F2F2F2" opacity="1.000000" stroke="none" 
	d="
M182.583344,1.000000 
	C183.707748,2.231601 184.702835,3.390843 185.036682,4.716599 
	C185.329056,5.877624 184.878632,7.225699 184.756332,8.491146 
	C183.631592,8.204034 182.047806,8.281217 181.473373,7.557379 
	C180.085876,5.808990 179.169754,3.686522 178.031799,1.357439 
	C179.388885,1.000000 180.777786,1.000000 182.583344,1.000000 
z"/>
<path fill="#F2F2F2" opacity="1.000000" stroke="none" 
	d="
M103.416664,240.000000 
	C103.539902,238.456879 104.079803,236.913773 104.619705,235.370651 
	C105.745880,236.666611 106.872055,237.962555 107.999115,239.629242 
	C106.611107,240.000000 105.222221,240.000000 103.416664,240.000000 
z"/>
<path fill="#FF3C3B" opacity="1.000000" stroke="none" 
	d="
M125.273972,140.298126 
	C127.037567,133.831650 129.355453,131.640488 133.392365,132.336472 
	C138.477814,133.213257 140.761307,136.529251 140.183258,142.652206 
	C138.372543,161.832306 122.705460,184.203369 95.375244,185.487701 
	C68.545090,186.748535 48.973015,165.799072 50.000652,138.380798 
	C50.242737,131.921753 54.286751,127.381592 59.837872,127.269096 
	C65.305832,127.158287 69.526184,131.678482 70.010849,138.079865 
	C70.286560,141.721252 70.329910,145.424362 71.064796,148.978302 
	C72.969696,158.190628 77.740349,165.507233 87.136681,168.242157 
	C96.623222,171.003357 105.623398,169.374527 113.249390,162.651459 
	C119.882729,156.803497 123.274673,149.130219 125.273972,140.298126 
z"/>
<path fill="#3B3886" opacity="1.000000" stroke="none" 
	d="
M278.471954,132.074829 
	C278.689941,143.139053 278.907898,154.203262 279.130249,165.489151 
	C269.990356,167.299805 266.892365,166.436813 265.039764,161.801376 
	C259.868164,163.485077 254.861389,166.135651 249.659058,166.601273 
	C238.001022,167.644684 228.922104,160.548874 227.853699,150.740036 
	C226.633530,139.537735 233.010101,131.217758 245.139999,129.107681 
	C251.307678,128.034775 257.658447,128.014252 263.937286,127.517128 
	C264.961273,119.681763 262.898529,115.293480 257.503418,113.893158 
	C250.161530,111.987541 245.695969,114.273521 242.397858,121.852577 
	C240.373535,121.852577 238.220871,121.852577 236.068192,121.852577 
	C233.918350,121.852577 231.768494,121.852577 229.086899,121.852577 
	C229.297913,114.224701 233.570084,109.764961 239.377045,106.451942 
	C249.352783,100.760551 263.286346,101.824776 272.648987,109.241135 
	C274.006683,110.860008 274.943390,112.025528 275.974854,113.557266 
	C276.874725,118.597977 277.679901,123.272469 278.373047,128.350571 
	C278.331329,129.861069 278.401642,130.967957 278.471954,132.074829 
M264.327637,144.088882 
	C264.327637,141.757751 264.327637,139.426620 264.327637,137.086121 
	C261.444916,137.086121 259.219360,137.086121 256.144623,136.934433 
	C253.693710,137.264771 251.179443,137.353287 248.804932,137.975311 
	C243.708847,139.310226 241.322693,142.556213 241.615417,147.233917 
	C241.940506,152.428833 246.111069,155.892456 251.840393,155.725632 
	C258.748108,155.524506 264.219696,150.740738 264.327637,144.088882 
z"/>
<path fill="#393685" opacity="1.000000" stroke="none" 
	d="
M191.707733,166.320312 
	C178.824203,164.292999 170.485397,156.552628 167.912277,144.279617 
	C166.094543,135.609604 166.557632,127.018471 170.206314,118.857552 
	C177.938782,101.562538 201.422623,96.940956 213.969437,110.376030 
	C221.368759,118.299171 221.491104,128.403488 221.371292,138.990387 
	C207.898224,138.990387 194.682632,138.990387 181.135468,138.990387 
	C181.815414,146.311432 184.502594,151.700439 191.107025,154.336365 
	C199.667557,157.753006 206.634827,154.633423 213.054794,148.134430 
	C215.453690,150.425095 217.800034,152.665588 220.390167,155.138885 
	C213.044815,164.783356 203.434097,167.669327 191.707733,166.320312 
M203.447021,116.985611 
	C199.253891,113.264542 194.391357,112.805130 189.577362,115.046654 
	C183.962982,117.660858 182.044708,122.819893 181.498474,128.783905 
	C190.376938,128.783905 198.950989,128.783905 208.705811,128.783905 
	C206.962982,124.634613 205.471085,121.082695 203.447021,116.985611 
z"/>
<path fill="#3A3785" opacity="1.000000" stroke="none" 
	d="
M413.125427,130.267303 
	C408.029877,145.095520 403.082123,159.558945 398.031769,173.986465 
	C395.220734,182.016815 391.020111,188.891220 381.720520,190.372192 
	C378.682617,190.855972 375.502716,190.448257 372.130768,190.448257 
	C372.130768,186.325867 372.130768,182.901093 372.130768,178.925507 
	C380.334930,180.188095 385.370300,176.534760 387.199371,168.737167 
	C387.693665,166.629990 387.887909,164.111572 387.212585,162.124191 
	C381.172302,144.349030 374.905640,126.650833 368.708801,108.928856 
	C368.170746,107.390190 367.655762,105.843468 367.129608,104.299133 
	C367.729706,104.097763 368.038544,103.918480 368.357605,103.897934 
	C381.593933,103.046028 381.592712,103.048241 385.543488,115.598495 
	C388.486389,124.946976 391.432617,134.294418 394.390686,143.638092 
	C394.414642,143.713821 394.623779,143.730896 395.362091,143.998383 
	C399.371948,130.724289 403.375061,117.472664 407.427704,104.056946 
	C412.200256,104.056946 416.819794,104.056946 422.163483,104.056946 
	C419.126801,112.837685 416.178589,121.362587 413.125427,130.267303 
z"/>
<path fill="#3A3786" opacity="1.000000" stroke="none" 
	d="
M292.031738,103.619041 
	C294.728333,103.691254 297.424927,103.763474 300.622986,104.295456 
	C301.261749,106.484116 301.399078,108.212997 301.568451,110.345337 
	C305.097168,107.969055 308.048004,105.981949 310.998810,103.994827 
	C311.828949,103.808479 312.659088,103.622139 314.206238,103.272552 
	C318.576538,103.162125 322.229828,103.214951 325.883148,103.267769 
	C335.114716,106.272293 338.821289,113.323395 338.999420,122.323578 
	C339.282257,136.616257 339.074860,150.918640 339.074860,165.533081 
	C334.585602,165.533081 330.327972,165.533081 325.287750,165.533081 
	C325.287750,163.832489 325.288239,162.074417 325.287659,160.316345 
	C325.283875,148.825577 325.374725,137.333725 325.244354,125.844398 
	C325.149139,117.453125 321.817871,113.937759 314.517426,114.025299 
	C306.931671,114.116264 302.014130,118.963493 302.012238,126.363182 
	C302.008881,139.325378 302.011261,152.287582 302.011261,165.548920 
	C297.406860,165.548920 293.149078,165.548920 288.041016,165.548920 
	C288.041016,153.746536 288.041016,141.845200 288.064209,129.064896 
	C288.017944,126.783531 287.948486,125.381134 287.943726,123.547516 
	C287.963928,121.084816 287.919464,119.053329 287.968353,116.598251 
	C288.015198,114.444809 287.968719,112.714951 287.922241,110.985092 
	C288.060425,108.716171 288.198639,106.447258 289.028778,103.980682 
	C290.491058,103.728371 291.261383,103.673706 292.031738,103.619041 
z"/>
<path fill="#3A3785" opacity="1.000000" stroke="none" 
	d="
M88.010551,82.900978 
	C102.166267,83.579758 110.285149,90.367737 112.668297,103.516640 
	C113.933769,110.498817 109.227379,116.751564 102.207863,116.784340 
	C100.687004,116.791451 98.527245,115.030571 97.776428,113.527298 
	C96.623810,111.219528 96.649956,108.356918 95.799660,105.857765 
	C93.415718,98.850929 85.951134,96.652496 81.445251,102.444893 
	C77.304329,107.768120 74.979813,114.540520 72.101685,120.788094 
	C71.224632,122.691902 71.164993,124.972290 70.663208,127.409439 
	C64.691177,123.487373 58.564838,121.733574 51.263260,126.185150 
	C53.273258,114.337540 57.686520,104.472649 65.253632,95.336075 
	C68.130219,92.663918 70.566879,90.432701 73.352203,88.097473 
	C78.470764,86.295959 83.240654,84.598465 88.010551,82.900978 
z"/>
<path fill="#3D3A87" opacity="1.000000" stroke="none" 
	d="
M346.981995,77.902260 
	C348.692719,77.903938 350.403473,77.905617 352.942200,77.929901 
	C354.862396,77.882721 355.954620,77.812943 357.046814,77.743164 
	C359.136047,77.819954 360.740601,77.937782 360.723694,80.958755 
	C360.567322,108.908813 360.577240,136.859787 360.527618,164.810486 
	C360.527374,164.947052 360.367004,165.083344 360.094513,165.517731 
	C355.904541,165.517731 351.526581,165.517731 346.676605,165.517731 
	C346.676605,137.498489 346.676605,109.744568 346.699463,81.147659 
	C346.808868,79.503868 346.895416,78.703064 346.981995,77.902260 
z"/>
<path fill="#3A3886" opacity="1.000000" stroke="none" 
	d="
M160.837463,85.095169 
	C160.837433,112.075142 160.837433,138.565918 160.837433,165.431549 
	C156.303345,165.431549 151.925034,165.431549 147.211914,165.431549 
	C147.211914,136.508682 147.211914,107.591904 147.211914,78.304604 
	C151.443909,78.304604 155.831299,78.304604 160.837494,78.304604 
	C160.837494,80.389297 160.837494,82.497635 160.837463,85.095169 
z"/>
<path fill="#F2F2F2" opacity="1.000000" stroke="none" 
	d="
M140.997589,29.998119 
	C141.853561,31.411043 142.701675,32.832230 143.572128,34.239594 
	C147.790497,41.059956 145.306641,47.843506 137.559570,50.170879 
	C136.271057,50.557976 134.680161,49.938515 133.228989,49.784187 
	C134.132614,48.690514 134.818268,47.176918 135.977325,46.575264 
	C141.221237,43.853188 141.269424,43.946003 140.079361,39.058693 
	C135.596985,45.393883 130.178833,46.610600 124.061737,42.243065 
	C123.686867,45.327503 124.039047,48.521183 122.798889,50.876408 
	C121.619438,53.116360 119.025887,55.050602 116.611252,56.108192 
	C111.857262,58.190418 107.198982,56.827938 104.846184,51.865082 
	C103.440048,48.899067 103.054741,44.052593 104.564995,41.383698 
	C107.980980,35.347027 112.106720,34.871765 120.833069,37.852039 
	C118.436562,28.817745 125.193832,25.684460 130.859253,22.034075 
	C131.798096,21.429157 134.341614,22.084864 135.314651,23.020267 
	C137.307571,24.936125 138.737930,27.437187 140.701843,29.851171 
	C141.003754,30.005054 141.000000,30.000015 140.997589,29.998119 
M110.032692,51.403988 
	C112.829735,53.364754 115.926598,53.960037 117.619438,50.577908 
	C118.593864,48.631119 118.652359,45.330956 117.601135,43.526825 
	C116.626671,41.854420 113.316010,40.155392 111.586662,40.603016 
	C108.113197,41.502079 107.494331,44.972637 108.100517,48.330341 
	C108.263458,49.232914 108.977180,50.036057 110.032692,51.403988 
M125.484863,31.232632 
	C123.811745,35.048492 126.203629,37.434723 128.896576,39.054913 
	C130.239929,39.863121 132.920288,39.760132 134.300430,38.922901 
	C137.165466,37.184921 138.172180,34.438595 135.797409,31.328836 
	C132.611832,27.157316 130.031784,26.960625 125.484863,31.232632 
z"/>
<path fill="#F2F2F2" opacity="1.000000" stroke="none" 
	d="
M383.001831,233.001678 
	C382.845856,232.028946 382.882874,230.968796 382.498199,230.094162 
	C380.198822,224.865799 381.905853,220.807770 386.064789,217.454132 
	C389.949249,214.321793 393.914490,214.539963 397.920410,217.278748 
	C398.273285,217.520004 398.816498,217.482788 399.628448,217.647247 
	C397.885712,210.352631 400.103912,205.577286 407.620270,203.731064 
	C408.818207,203.436829 409.592407,201.417572 411.411713,199.126297 
	C415.080200,204.621704 418.437286,209.569565 421.660156,214.603333 
	C421.984528,215.109909 421.749298,216.309509 421.347565,216.895065 
	C416.708801,223.656189 411.271210,225.303497 403.478210,222.428741 
	C403.343567,222.379074 403.162292,222.455795 402.283691,222.553574 
	C402.137634,227.178711 402.428680,232.558640 397.220795,235.099167 
	C392.419861,237.441162 387.909912,235.906357 383.364502,233.037842 
	C382.996338,232.996338 383.000000,233.000000 383.001831,233.001678 
M388.624451,220.934494 
	C387.938385,223.247116 386.127045,226.049026 386.863647,227.743027 
	C387.701233,229.669250 390.735352,231.455566 392.968903,231.666077 
	C394.399811,231.800949 396.811005,229.259079 397.552612,227.420883 
	C399.245239,223.225235 394.898590,219.744934 388.624451,220.934494 
M407.032318,218.524399 
	C408.931580,218.596848 411.322174,219.436157 412.635803,218.594528 
	C416.230682,216.291321 415.836548,212.501480 413.139587,210.125900 
	C411.541473,208.718277 407.369812,208.054764 405.875854,209.143372 
	C402.371124,211.697128 403.494019,215.188293 407.032318,218.524399 
z"/>
<path fill="#F0F0F0" opacity="1.000000" stroke="none" 
	d="
M73.003540,88.201492 
	C70.566879,90.432701 68.130219,92.663918 65.386017,95.031418 
	C63.718609,85.386909 62.299995,75.613724 61.027740,65.821533 
	C60.518227,61.899979 60.390335,57.930340 59.978226,53.994160 
	C59.646549,50.826195 60.942158,48.329117 64.010208,48.440777 
	C65.433006,48.492558 67.693459,51.129284 67.965607,52.848740 
	C69.277336,61.136398 70.006470,69.515030 71.028229,77.850861 
	C71.234680,79.535202 71.812721,81.173996 72.610771,83.353546 
	C73.002579,85.316032 73.003067,86.758759 73.003540,88.201492 
z"/>
<path fill="#F2F2F2" opacity="1.000000" stroke="none" 
	d="
M399.214172,28.694012 
	C398.651428,26.512289 398.339722,24.601522 398.028015,22.690758 
	C399.966492,23.099279 402.124878,23.098680 403.799103,23.998718 
	C407.673431,26.081461 411.313385,28.600201 416.048950,31.569540 
	C414.878296,25.884474 413.732971,21.430040 413.144257,16.903217 
	C412.917450,15.159343 413.956238,13.250877 414.418396,11.417408 
	C415.800476,12.295596 417.544769,12.889779 418.497375,14.104725 
	C421.462189,17.886059 424.222473,21.841017 426.829956,25.878527 
	C427.370331,26.715260 426.911316,28.197437 426.912903,29.382149 
	C425.901855,28.841669 424.653381,28.516441 423.928162,27.716734 
	C422.325623,25.949564 420.986359,23.943655 419.539673,22.035139 
	C419.004547,22.220469 418.469391,22.405798 417.934265,22.591127 
	C418.488647,25.475374 419.190247,28.342356 419.531525,31.251602 
	C419.687683,32.582661 419.584503,34.616386 418.778503,35.201679 
	C417.949249,35.803871 415.928680,35.395451 414.768280,34.785065 
	C412.062103,33.361553 409.559326,31.551325 406.974121,29.897760 
	C406.656158,30.189543 406.338196,30.481327 406.020233,30.773109 
	C407.802612,34.212772 409.585022,37.652439 411.367401,41.092102 
	C410.802612,41.431660 410.237823,41.771221 409.673035,42.110783 
	C404.873169,38.915371 402.910034,33.311043 399.214172,28.694012 
z"/>
<path fill="#F2F2F2" opacity="1.000000" stroke="none" 
	d="
M130.386047,231.010025 
	C130.002151,230.561996 130.001266,230.116669 130.000793,229.337494 
	C127.487129,219.519104 128.587845,219.229568 136.715317,213.499847 
	C142.234192,209.609116 143.375946,212.624527 145.583313,215.989990 
	C147.805084,219.377457 149.996979,222.784515 151.730103,225.455719 
	C149.000061,228.286499 147.305679,231.344772 144.806717,232.301559 
	C141.759338,233.468323 138.027863,233.067368 134.608566,232.932159 
	C133.305466,232.880615 132.047562,231.686234 130.386047,231.010025 
M138.670776,229.950073 
	C142.081039,229.758575 145.014282,227.873871 144.586304,224.694046 
	C144.265472,222.310333 141.662201,219.794510 139.428864,218.309387 
	C138.443726,217.654282 135.149582,218.862625 134.134781,220.176086 
	C131.551041,223.520340 133.809189,226.318436 136.295197,228.738617 
	C136.756210,229.187424 137.377426,229.471664 138.670776,229.950073 
z"/>
<path fill="#F2F2F2" opacity="1.000000" stroke="none" 
	d="
M401.187439,38.180649 
	C402.902252,45.426918 401.454773,49.108177 395.826050,52.478657 
	C390.760590,55.511856 385.982330,53.944206 381.426636,47.754559 
	C377.501556,42.421764 377.993286,37.100651 382.818726,32.688950 
	C386.890961,28.965883 392.825104,28.742271 396.822296,32.427345 
	C398.481232,33.956741 399.672913,35.992947 401.187439,38.180649 
M385.486328,35.045113 
	C382.083282,39.014751 382.078094,43.308041 385.471893,46.959229 
	C388.578186,50.301083 392.733032,50.947578 395.697357,48.550369 
	C398.368286,46.390430 398.817627,41.624283 396.681274,38.114174 
	C393.684052,33.189594 391.027496,32.295918 385.486328,35.045113 
z"/>
<path fill="#F1F1F1" opacity="1.000000" stroke="none" 
	d="
M325.937988,102.898338 
	C322.229828,103.214951 318.576538,103.162125 314.464905,103.077095 
	C312.918518,101.442749 311.962433,99.728828 310.717865,98.259193 
	C306.814087,93.649437 307.064392,87.302460 311.437744,83.057457 
	C315.997284,78.631729 322.004547,78.636536 326.567047,83.069557 
	C332.501587,88.835701 332.665039,93.882095 327.178925,100.384575 
	C326.662231,100.996979 326.382538,101.809364 325.937988,102.898338 
M312.516968,87.143997 
	C310.106903,91.476974 312.025208,95.009247 315.278259,97.505821 
	C317.049652,98.865280 320.546539,99.889000 322.193359,99.023872 
	C324.350494,97.890656 327.061249,94.380188 326.648071,92.540359 
	C325.916626,89.283562 323.542511,85.845581 320.872101,83.718437 
	C317.776581,81.252663 315.123077,84.124496 312.516968,87.143997 
z"/>
<path fill="#F1F1F1" opacity="1.000000" stroke="none" 
	d="
M100.721596,65.467010 
	C100.975922,67.655090 101.665596,70.321510 100.662254,71.374001 
	C99.636566,72.449951 96.707275,72.607559 95.038849,71.997643 
	C90.898956,70.484215 86.707214,68.722931 83.139862,66.205811 
	C81.481316,65.035545 81.225647,61.877079 80.334045,59.619881 
	C82.401108,59.323536 84.750603,58.250404 86.481148,58.879608 
	C91.263618,60.618465 95.787613,63.068230 100.721596,65.467010 
z"/>
<path fill="#E2E2EA" opacity="1.000000" stroke="none" 
	d="
M346.937805,77.568741 
	C346.895416,78.703064 346.808868,79.503868 346.611816,80.692726 
	C343.636658,82.499214 340.771973,83.917648 339.260284,84.666153 
	C338.384491,88.277573 337.860443,90.438583 337.336395,92.599594 
	C336.403107,90.751305 335.179565,88.990021 334.594208,87.037415 
	C333.178711,82.315529 331.943878,77.529564 330.907593,72.711067 
	C330.656647,71.544144 331.098511,69.805565 331.895264,68.979233 
	C332.460175,68.393379 334.456329,68.443787 335.298523,68.995918 
	C339.261017,71.593704 343.045532,74.462891 346.937805,77.568741 
M340.751099,79.370316 
	C339.333588,77.250328 337.916046,75.130341 336.498535,73.010353 
	C334.901276,80.080551 335.980438,81.422249 340.751099,79.370316 
z"/>
<path fill="#F2F2F2" opacity="1.000000" stroke="none" 
	d="
M372.762573,63.887344 
	C375.860107,60.533390 378.584808,57.238480 381.131348,54.158997 
	C383.269318,58.529221 382.027283,62.160568 376.624603,65.646530 
	C372.247498,68.470764 366.951447,67.239212 363.018280,62.482464 
	C359.046631,57.679199 358.781097,50.647587 362.438324,47.111763 
	C365.815430,43.846790 372.255280,42.187138 376.106720,46.779755 
	C374.684875,47.152771 373.363861,47.981144 372.566772,47.627747 
	C368.391144,45.776409 365.227295,47.804737 363.960815,51.058693 
	C363.085052,53.308792 363.931915,57.021297 365.373596,59.160873 
	C366.843079,61.341728 369.981842,62.397835 372.762573,63.887344 
z"/>
<path fill="#EFEFF0" opacity="1.000000" stroke="none" 
	d="
M73.352203,88.097473 
	C73.003067,86.758759 73.002579,85.316032 73.002930,83.442444 
	C77.757652,79.154533 82.380684,75.107300 87.408241,71.647987 
	C88.151695,71.136444 91.291336,73.046600 92.387566,74.528061 
	C92.992493,75.345566 91.902168,77.739082 91.113998,79.167068 
	C90.448746,80.372337 89.117203,81.209846 88.045563,82.555557 
	C83.240654,84.598465 78.470764,86.295959 73.352203,88.097473 
z"/>
<path fill="#F2F2F2" opacity="1.000000" stroke="none" 
	d="
M92.714333,47.226234 
	C92.242393,46.711987 91.878883,46.493351 91.821098,46.211933 
	C91.455994,44.434071 91.158661,42.642292 90.838943,40.855106 
	C92.424980,41.606476 94.559181,41.941254 95.501808,43.181599 
	C99.503281,48.446865 103.236649,53.925232 106.844398,59.471180 
	C107.446678,60.397034 106.941864,62.043076 106.948624,63.356327 
	C105.769287,62.909771 104.140434,62.809563 103.485229,61.959175 
	C99.847496,57.237755 96.446289,52.334091 92.714333,47.226234 
z"/>
<path fill="#F2F2F2" opacity="1.000000" stroke="none" 
	d="
M146.952560,212.915039 
	C146.209167,211.434082 145.363708,210.328461 145.150024,209.111862 
	C145.016647,208.352341 145.631302,207.053192 146.292114,206.688965 
	C146.841171,206.386337 148.324570,206.820480 148.746719,207.399902 
	C151.740372,211.508911 154.667450,215.677094 157.351334,219.990921 
	C157.813248,220.733337 157.014847,222.259888 156.798615,223.424210 
	C155.816345,223.064087 154.484100,222.990845 153.912781,222.293884 
	C151.523361,219.378983 149.362289,216.276932 146.952560,212.915039 
z"/>
<path fill="#F2F2F2" opacity="1.000000" stroke="none" 
	d="
M420.221985,205.807785 
	C415.359436,200.586212 415.137695,199.608383 418.417969,195.769104 
	C421.772644,200.568451 425.071472,205.187210 428.207245,209.914108 
	C428.559845,210.445679 428.273682,212.008682 427.777771,212.343109 
	C427.144775,212.769989 425.556030,212.822144 425.148041,212.358810 
	C423.428375,210.405792 421.994690,208.200943 420.221985,205.807785 
z"/>
<path fill="#E2E2EA" opacity="1.000000" stroke="none" 
	d="
M357.030701,77.392227 
	C355.954620,77.812943 354.862396,77.882721 353.365723,77.872658 
	C349.960541,72.511452 346.959869,67.230087 343.959198,61.948723 
	C344.352936,61.680241 344.746643,61.411762 345.140381,61.143280 
	C350.274384,65.487091 353.675262,71.239182 357.030701,77.392227 
z"/>
<path fill="#F2F2F2" opacity="1.000000" stroke="none" 
	d="
M292.038513,103.272461 
	C291.261383,103.673706 290.491058,103.728371 289.342224,103.693756 
	C289.189178,98.534340 292.472961,94.349663 297.028198,94.122589 
	C299.482513,94.000244 303.205750,92.458778 303.910950,97.798706 
	C298.469513,96.523033 293.738159,96.648132 292.038513,103.272461 
z"/>
<path fill="#E4E3EB" opacity="1.000000" stroke="none" 
	d="
M287.558167,110.957329 
	C287.968719,112.714951 288.015198,114.444809 287.628021,116.545715 
	C286.227631,115.900307 285.406799,114.661415 284.264709,113.912399 
	C281.661163,112.204948 279.051788,108.851120 275.880096,113.191055 
	C274.943390,112.025528 274.006683,110.860008 272.947418,109.393921 
	C277.926208,107.267052 282.764038,107.502831 287.558167,110.957329 
z"/>
<path fill="#E4E3EB" opacity="1.000000" stroke="none" 
	d="
M310.839233,103.694839 
	C308.048004,105.981949 305.097168,107.969055 301.568451,110.345337 
	C301.399078,108.212997 301.261749,106.484116 301.071838,104.345886 
	C304.098480,101.242981 307.128418,97.670959 310.839233,103.694839 
z"/>
<path fill="#F1F1F1" opacity="1.000000" stroke="none" 
	d="
M78.975647,57.808586 
	C78.112968,61.317772 76.187538,63.051769 73.168671,61.258991 
	C71.974159,60.549614 71.155563,58.196110 71.264771,56.669842 
	C71.333748,55.705826 73.677849,53.967800 74.573380,54.203499 
	C76.211212,54.634556 77.531769,56.271111 78.975647,57.808586 
z"/>
<path fill="#E4E3EB" opacity="1.000000" stroke="none" 
	d="
M287.879028,123.978745 
	C287.948486,125.381134 288.017944,126.783531 288.004272,128.600540 
	C285.006012,130.017334 282.090851,131.019531 278.823822,132.048279 
	C278.401642,130.967957 278.331329,129.861069 278.739166,128.358475 
	C282.104553,126.634743 284.991791,125.306740 287.879028,123.978745 
z"/>
<path fill="#FEFEFE" opacity="1.000000" stroke="none" 
	d="
M151.245850,27.350389 
	C145.975662,28.911694 144.195786,25.331818 143.365616,21.882524 
	C142.980606,20.282833 144.595795,17.055790 146.107224,16.390324 
	C149.022110,15.106933 152.519058,15.654295 154.227432,18.985195 
	C155.948486,22.340855 155.384781,25.386442 151.245850,27.350389 
z"/>
<path fill="#FEFEFE" opacity="1.000000" stroke="none" 
	d="
M161.001328,8.077113 
	C161.159103,3.881428 163.802032,2.762926 166.792328,3.230005 
	C170.514877,3.811464 172.955292,6.412870 171.823990,10.298865 
	C171.287262,12.142565 169.055847,14.529482 167.318741,14.780893 
	C163.132599,15.386745 160.980820,12.737748 161.001328,8.077113 
z"/>
<path fill="#FBFBFC" opacity="1.000000" stroke="none" 
	d="
M264.119537,144.990051 
	C264.219696,150.740738 258.748108,155.524506 251.840393,155.725632 
	C246.111069,155.892456 241.940506,152.428833 241.615417,147.233917 
	C241.322693,142.556213 243.708847,139.310226 248.804932,137.975311 
	C251.179443,137.353287 253.693710,137.264771 256.608643,137.357361 
	C259.421600,140.183533 261.770569,142.586792 264.119537,144.990051 
z"/>
<path fill="#FDFDFD" opacity="1.000000" stroke="none" 
	d="
M287.943726,123.547523 
	C284.991791,125.306740 282.104553,126.634743 278.851196,127.954849 
	C277.679901,123.272469 276.874725,118.597977 275.974854,113.557274 
	C279.051788,108.851120 281.661163,112.204948 284.264709,113.912399 
	C285.406799,114.661415 286.227631,115.900307 287.534668,116.969299 
	C287.919464,119.053329 287.963928,121.084816 287.943726,123.547523 
z"/>
<path fill="#F2F2F2" opacity="1.000000" stroke="none" 
	d="
M264.223572,144.539459 
	C261.770569,142.586792 259.421600,140.183533 257.033203,137.433197 
	C259.219360,137.086121 261.444916,137.086121 264.327637,137.086121 
	C264.327637,139.426620 264.327637,141.757751 264.223572,144.539459 
z"/>
<path fill="#FBFBFD" opacity="1.000000" stroke="none" 
	d="
M203.713104,117.258194 
	C205.471085,121.082695 206.962982,124.634613 208.705811,128.783905 
	C198.950989,128.783905 190.376938,128.783905 181.498474,128.783905 
	C182.044708,122.819893 183.962982,117.660858 189.577362,115.046654 
	C194.391357,112.805130 199.253891,113.264542 203.713104,117.258194 
z"/>
<path fill="#FEFEFE" opacity="1.000000" stroke="none" 
	d="
M109.735382,51.144413 
	C108.977180,50.036057 108.263458,49.232914 108.100517,48.330341 
	C107.494331,44.972637 108.113197,41.502079 111.586662,40.603016 
	C113.316010,40.155392 116.626671,41.854420 117.601135,43.526825 
	C118.652359,45.330956 118.593864,48.631119 117.619438,50.577908 
	C115.926598,53.960037 112.829735,53.364754 109.735382,51.144413 
z"/>
<path fill="#FEFEFE" opacity="1.000000" stroke="none" 
	d="
M125.717346,30.920841 
	C130.031784,26.960625 132.611832,27.157316 135.797409,31.328836 
	C138.172180,34.438595 137.165466,37.184921 134.300430,38.922901 
	C132.920288,39.760132 130.239929,39.863121 128.896576,39.054913 
	C126.203629,37.434723 123.811745,35.048492 125.717346,30.920841 
z"/>
<path fill="#FEFEFE" opacity="1.000000" stroke="none" 
	d="
M388.941010,220.701202 
	C394.898590,219.744934 399.245239,223.225235 397.552612,227.420883 
	C396.811005,229.259079 394.399811,231.800949 392.968903,231.666077 
	C390.735352,231.455566 387.701233,229.669250 386.863647,227.743027 
	C386.127045,226.049026 387.938385,223.247116 388.941010,220.701202 
z"/>
<path fill="#FEFEFE" opacity="1.000000" stroke="none" 
	d="
M406.755249,218.252457 
	C403.494019,215.188293 402.371124,211.697128 405.875854,209.143372 
	C407.369812,208.054764 411.541473,208.718277 413.139587,210.125900 
	C415.836548,212.501480 416.230682,216.291321 412.635803,218.594528 
	C411.322174,219.436157 408.931580,218.596848 406.755249,218.252457 
z"/>
<path fill="#FEFEFE" opacity="1.000000" stroke="none" 
	d="
M138.297745,229.890961 
	C137.377426,229.471664 136.756210,229.187424 136.295197,228.738617 
	C133.809189,226.318436 131.551041,223.520340 134.134781,220.176086 
	C135.149582,218.862625 138.443726,217.654282 139.428864,218.309387 
	C141.662201,219.794510 144.265472,222.310333 144.586304,224.694046 
	C145.014282,227.873871 142.081039,229.758575 138.297745,229.890961 
z"/>
<path fill="#FEFEFE" opacity="1.000000" stroke="none" 
	d="
M385.782837,34.796379 
	C391.027496,32.295918 393.684052,33.189594 396.681274,38.114174 
	C398.817627,41.624283 398.368286,46.390430 395.697357,48.550369 
	C392.733032,50.947578 388.578186,50.301083 385.471893,46.959229 
	C382.078094,43.308041 382.083282,39.014751 385.782837,34.796379 
z"/>
<path fill="#FEFEFE" opacity="1.000000" stroke="none" 
	d="
M312.749023,86.849419 
	C315.123077,84.124496 317.776581,81.252663 320.872101,83.718437 
	C323.542511,85.845581 325.916626,89.283562 326.648071,92.540359 
	C327.061249,94.380188 324.350494,97.890656 322.193359,99.023872 
	C320.546539,99.889000 317.049652,98.865280 315.278259,97.505821 
	C312.025208,95.009247 310.106903,91.476974 312.749023,86.849419 
z"/>
<path fill="#FDFDFD" opacity="1.000000" stroke="none" 
	d="
M340.545715,79.689667 
	C335.980438,81.422249 334.901276,80.080551 336.498535,73.010353 
	C337.916046,75.130341 339.333588,77.250328 340.545715,79.689667 
z"/>
</svg>